<svg width="115" height="18" viewBox="0 0 115 18" fill="none" xmlns="http://www.w3.org/2000/svg">
<path fill-rule="evenodd" clip-rule="evenodd" d="M1 8.025C1 8.017 1 8.008 1 8C1 4.137 4.137 1 8 1C11.863 1 15 4.137 15 8C15 8.008 15 8.017 15 8.025C14.984 13.256 9.95 16.378 8.359 16.934C8.253 16.971 8.126 17 8 17C7.874 17 7.753 16.976 7.641 16.934C6.05 16.378 1.016 13.256 1 8.025ZM8 5C9.656 5 11 6.344 11 8C11 9.656 9.656 11 8 11C6.344 11 5 9.656 5 8C5 6.344 6.344 5 8 5Z" fill="white"/>
<path d="M25.125 5.43359H27.6738C28.7793 5.43359 29.6133 5.59375 30.1758 5.91406C30.7383 6.23438 31.0195 6.78711 31.0195 7.57227C31.0195 7.90039 30.9609 8.19727 30.8438 8.46289C30.7305 8.72461 30.5645 8.94141 30.3457 9.11328C30.127 9.28125 29.8574 9.39453 29.5371 9.45312V9.51172C29.8691 9.57031 30.1641 9.67383 30.4219 9.82227C30.6836 9.9707 30.8887 10.1836 31.0371 10.4609C31.1895 10.7383 31.2656 11.0977 31.2656 11.5391C31.2656 12.0625 31.1406 12.5078 30.8906 12.875C30.6445 13.2422 30.291 13.5215 29.8301 13.7129C29.373 13.9043 28.8301 14 28.2012 14H25.125V5.43359ZM26.5312 8.9668H27.8789C28.5156 8.9668 28.957 8.86328 29.2031 8.65625C29.4492 8.44922 29.5723 8.14648 29.5723 7.74805C29.5723 7.3418 29.4258 7.04883 29.1328 6.86914C28.8438 6.68945 28.3828 6.59961 27.75 6.59961H26.5312V8.9668ZM26.5312 10.1035V12.8223H28.0137C28.6699 12.8223 29.1309 12.6953 29.3965 12.4414C29.6621 12.1875 29.7949 11.8438 29.7949 11.4102C29.7949 11.1445 29.7344 10.9141 29.6133 10.7188C29.4961 10.5234 29.3027 10.373 29.0332 10.2676C28.7637 10.1582 28.4004 10.1035 27.9434 10.1035H26.5312ZM32.8945 14V7.51367H34.2773V10.1035H35.584C36.1934 10.1035 36.6953 10.1738 37.0898 10.3145C37.4844 10.4512 37.7773 10.6582 37.9688 10.9355C38.1602 11.2129 38.2559 11.5605 38.2559 11.9785C38.2559 12.3887 38.1641 12.7461 37.9805 13.0508C37.7969 13.3516 37.5098 13.5859 37.1191 13.7539C36.7285 13.918 36.2168 14 35.584 14H32.8945ZM34.2773 12.9863H35.4902C35.9043 12.9863 36.2383 12.9121 36.4922 12.7637C36.75 12.6113 36.8789 12.3613 36.8789 12.0137C36.8789 11.6895 36.7598 11.4609 36.5215 11.3281C36.2871 11.1914 35.9434 11.123 35.4902 11.123H34.2773V12.9863ZM39.2578 14V7.51367H40.6406V14H39.2578ZM42.2402 10.1094C42.2402 9.16797 42.3438 8.36719 42.5508 7.70703C42.7578 7.04688 43.084 6.51758 43.5293 6.11914C43.9746 5.7207 44.5527 5.44922 45.2637 5.30469C45.7246 5.19922 46.1934 5.10938 46.6699 5.03516C47.1465 4.96094 47.623 4.88867 48.0996 4.81836L48.2871 6.03125C48.0645 6.05859 47.8262 6.0918 47.5723 6.13086C47.3184 6.16602 47.0625 6.20312 46.8047 6.24219C46.5508 6.28125 46.3066 6.32227 46.0723 6.36523C45.8418 6.4043 45.6348 6.44336 45.4512 6.48242C45.084 6.56055 44.7734 6.68945 44.5195 6.86914C44.2695 7.04492 44.0742 7.30273 43.9336 7.64258C43.793 7.98242 43.709 8.43555 43.6816 9.00195H43.7578C43.8633 8.8418 44.0098 8.68164 44.1973 8.52148C44.3848 8.36133 44.6113 8.22852 44.877 8.12305C45.1465 8.01367 45.4531 7.95898 45.7969 7.95898C46.3359 7.95898 46.793 8.07227 47.168 8.29883C47.5469 8.52539 47.834 8.85352 48.0293 9.2832C48.2285 9.71289 48.3281 10.2305 48.3281 10.8359C48.3281 11.5586 48.1992 12.1641 47.9414 12.6523C47.6875 13.1367 47.332 13.502 46.875 13.748C46.418 13.9941 45.8848 14.1172 45.2754 14.1172C44.8066 14.1172 44.3848 14.0293 44.0098 13.8535C43.6387 13.6777 43.3203 13.4199 43.0547 13.0801C42.793 12.7363 42.5918 12.3164 42.4512 11.8203C42.3105 11.3203 42.2402 10.75 42.2402 10.1094ZM45.3691 12.9863C45.6816 12.9863 45.9512 12.9199 46.1777 12.7871C46.4082 12.6543 46.5859 12.4395 46.7109 12.1426C46.8398 11.8457 46.9043 11.4531 46.9043 10.9648C46.9043 10.3633 46.7949 9.89062 46.5762 9.54688C46.3613 9.19922 46.0059 9.02539 45.5098 9.02539C45.2051 9.02539 44.9258 9.09375 44.6719 9.23047C44.418 9.36719 44.2031 9.52734 44.0273 9.71094C43.8516 9.89062 43.7266 10.0488 43.6523 10.1855C43.6523 10.541 43.6777 10.8848 43.7285 11.2168C43.7832 11.5488 43.873 11.8496 43.998 12.1191C44.127 12.3848 44.3027 12.5957 44.5254 12.752C44.748 12.9082 45.0293 12.9863 45.3691 12.9863ZM53.2383 7.39062C54.0078 7.39062 54.625 7.67188 55.0898 8.23438C55.5586 8.79688 55.793 9.63281 55.793 10.7422C55.793 11.4766 55.6836 12.0957 55.4648 12.5996C55.25 13.0996 54.9473 13.4785 54.5566 13.7363C54.1699 13.9902 53.7188 14.1172 53.2031 14.1172C52.875 14.1172 52.5898 14.0742 52.3477 13.9883C52.1055 13.9023 51.8984 13.791 51.7266 13.6543C51.5547 13.5137 51.4102 13.3613 51.293 13.1973H51.2109C51.2305 13.3535 51.248 13.5273 51.2637 13.7188C51.2832 13.9062 51.293 14.0781 51.293 14.2344V16.877H49.9102V7.51367H51.0352L51.2285 8.41016H51.293C51.4141 8.22656 51.5605 8.05664 51.7324 7.90039C51.9082 7.74414 52.1191 7.62109 52.3652 7.53125C52.6152 7.4375 52.9062 7.39062 53.2383 7.39062ZM52.8691 8.51562C52.4902 8.51562 52.1855 8.5918 51.9551 8.74414C51.7285 8.89258 51.5625 9.11719 51.457 9.41797C51.3555 9.71875 51.3008 10.0957 51.293 10.5488V10.7422C51.293 11.2227 51.3418 11.6309 51.4395 11.9668C51.541 12.2988 51.707 12.5527 51.9375 12.7285C52.1719 12.9004 52.4883 12.9863 52.8867 12.9863C53.2227 12.9863 53.5 12.8945 53.7188 12.7109C53.9414 12.5273 54.1074 12.2656 54.2168 11.9258C54.3262 11.5859 54.3809 11.1855 54.3809 10.7246C54.3809 10.0254 54.2559 9.48242 54.0059 9.0957C53.7598 8.70898 53.3809 8.51562 52.8691 8.51562ZM59.9297 7.39062C60.75 7.39062 61.3691 7.57227 61.7871 7.93555C62.209 8.29883 62.4199 8.86523 62.4199 9.63477V14H61.4414L61.1777 13.0801H61.1309C60.9473 13.3145 60.7578 13.5078 60.5625 13.6602C60.3672 13.8125 60.1406 13.9258 59.8828 14C59.6289 14.0781 59.3184 14.1172 58.9512 14.1172C58.5645 14.1172 58.2188 14.0469 57.9141 13.9062C57.6094 13.7617 57.3691 13.543 57.1934 13.25C57.0176 12.957 56.9297 12.5859 56.9297 12.1367C56.9297 11.4688 57.1777 10.9668 57.6738 10.6309C58.1738 10.2949 58.9277 10.1094 59.9355 10.0742L61.0605 10.0332V9.69336C61.0605 9.24414 60.9551 8.92383 60.7441 8.73242C60.5371 8.54102 60.2441 8.44531 59.8652 8.44531C59.541 8.44531 59.2266 8.49219 58.9219 8.58594C58.6172 8.67969 58.3203 8.79492 58.0312 8.93164L57.5859 7.95898C57.9023 7.79102 58.2617 7.6543 58.6641 7.54883C59.0703 7.44336 59.4922 7.39062 59.9297 7.39062ZM61.0547 10.9004L60.2168 10.9297C59.5293 10.9531 59.0469 11.0703 58.7695 11.2812C58.4922 11.4922 58.3535 11.7812 58.3535 12.1484C58.3535 12.4688 58.4492 12.7031 58.6406 12.8516C58.832 12.9961 59.084 13.0684 59.3965 13.0684C59.873 13.0684 60.2676 12.9336 60.5801 12.6641C60.8965 12.3906 61.0547 11.9902 61.0547 11.4629V10.9004ZM69.2461 8.59766H67.1133V14H65.7422V8.59766H63.6211V7.51367H69.2461V8.59766ZM71.8828 10.1035H73.4941C74.1035 10.1035 74.6074 10.1738 75.0059 10.3145C75.4082 10.4512 75.709 10.6582 75.9082 10.9355C76.1074 11.2129 76.207 11.5605 76.207 11.9785C76.207 12.3887 76.1133 12.7461 75.9258 13.0508C75.7383 13.3516 75.4453 13.5859 75.0469 13.7539C74.6523 13.918 74.1367 14 73.5 14H70.5V7.51367H71.8828V10.1035ZM74.8242 12.0137C74.8242 11.6895 74.7031 11.4609 74.4609 11.3281C74.2188 11.1914 73.873 11.123 73.4238 11.123H71.8828V12.9863H73.4355C73.8457 12.9863 74.1797 12.9121 74.4375 12.7637C74.6953 12.6113 74.8242 12.3613 74.8242 12.0137ZM85.0547 7.51367V8.59766H82.2305V14H80.8477V7.51367H85.0547ZM92.0508 10.7422C92.0508 11.2812 91.9805 11.7598 91.8398 12.1777C91.6992 12.5957 91.4941 12.9492 91.2246 13.2383C90.9551 13.5234 90.6309 13.7422 90.252 13.8945C89.873 14.043 89.4453 14.1172 88.9688 14.1172C88.5234 14.1172 88.1152 14.043 87.7441 13.8945C87.373 13.7422 87.0508 13.5234 86.7773 13.2383C86.5078 12.9492 86.2988 12.5957 86.1504 12.1777C86.002 11.7598 85.9277 11.2812 85.9277 10.7422C85.9277 10.0273 86.0508 9.42188 86.2969 8.92578C86.5469 8.42578 86.9023 8.04492 87.3633 7.7832C87.8242 7.52148 88.373 7.39062 89.0098 7.39062C89.6074 7.39062 90.1348 7.52148 90.5918 7.7832C91.0488 8.04492 91.4062 8.42578 91.6641 8.92578C91.9219 9.42578 92.0508 10.0312 92.0508 10.7422ZM87.3457 10.7422C87.3457 11.2148 87.4023 11.6191 87.5156 11.9551C87.6328 12.291 87.8125 12.5488 88.0547 12.7285C88.2969 12.9043 88.6094 12.9922 88.9922 12.9922C89.375 12.9922 89.6875 12.9043 89.9297 12.7285C90.1719 12.5488 90.3496 12.291 90.4629 11.9551C90.5762 11.6191 90.6328 11.2148 90.6328 10.7422C90.6328 10.2695 90.5762 9.86914 90.4629 9.54102C90.3496 9.20898 90.1719 8.95703 89.9297 8.78516C89.6875 8.60938 89.373 8.52148 88.9863 8.52148C88.416 8.52148 88 8.71289 87.7383 9.0957C87.4766 9.47852 87.3457 10.0273 87.3457 10.7422ZM96.9609 7.39062C97.7305 7.39062 98.3477 7.67188 98.8125 8.23438C99.2812 8.79688 99.5156 9.63281 99.5156 10.7422C99.5156 11.4766 99.4062 12.0957 99.1875 12.5996C98.9727 13.0996 98.6699 13.4785 98.2793 13.7363C97.8926 13.9902 97.4414 14.1172 96.9258 14.1172C96.5977 14.1172 96.3125 14.0742 96.0703 13.9883C95.8281 13.9023 95.6211 13.791 95.4492 13.6543C95.2773 13.5137 95.1328 13.3613 95.0156 13.1973H94.9336C94.9531 13.3535 94.9707 13.5273 94.9863 13.7188C95.0059 13.9062 95.0156 14.0781 95.0156 14.2344V16.877H93.6328V7.51367H94.7578L94.9512 8.41016H95.0156C95.1367 8.22656 95.2832 8.05664 95.4551 7.90039C95.6309 7.74414 95.8418 7.62109 96.0879 7.53125C96.3379 7.4375 96.6289 7.39062 96.9609 7.39062ZM96.5918 8.51562C96.2129 8.51562 95.9082 8.5918 95.6777 8.74414C95.4512 8.89258 95.2852 9.11719 95.1797 9.41797C95.0781 9.71875 95.0234 10.0957 95.0156 10.5488V10.7422C95.0156 11.2227 95.0645 11.6309 95.1621 11.9668C95.2637 12.2988 95.4297 12.5527 95.6602 12.7285C95.8945 12.9004 96.2109 12.9863 96.6094 12.9863C96.9453 12.9863 97.2227 12.8945 97.4414 12.7109C97.6641 12.5273 97.8301 12.2656 97.9395 11.9258C98.0488 11.5859 98.1035 11.1855 98.1035 10.7246C98.1035 10.0254 97.9785 9.48242 97.7285 9.0957C97.4824 8.70898 97.1035 8.51562 96.5918 8.51562ZM106.852 10.7422C106.852 11.2812 106.781 11.7598 106.641 12.1777C106.5 12.5957 106.295 12.9492 106.025 13.2383C105.756 13.5234 105.432 13.7422 105.053 13.8945C104.674 14.043 104.246 14.1172 103.77 14.1172C103.324 14.1172 102.916 14.043 102.545 13.8945C102.174 13.7422 101.852 13.5234 101.578 13.2383C101.309 12.9492 101.1 12.5957 100.951 12.1777C100.803 11.7598 100.729 11.2812 100.729 10.7422C100.729 10.0273 100.852 9.42188 101.098 8.92578C101.348 8.42578 101.703 8.04492 102.164 7.7832C102.625 7.52148 103.174 7.39062 103.811 7.39062C104.408 7.39062 104.936 7.52148 105.393 7.7832C105.85 8.04492 106.207 8.42578 106.465 8.92578C106.723 9.42578 106.852 10.0312 106.852 10.7422ZM102.146 10.7422C102.146 11.2148 102.203 11.6191 102.316 11.9551C102.434 12.291 102.613 12.5488 102.855 12.7285C103.098 12.9043 103.41 12.9922 103.793 12.9922C104.176 12.9922 104.488 12.9043 104.73 12.7285C104.973 12.5488 105.15 12.291 105.264 11.9551C105.377 11.6191 105.434 11.2148 105.434 10.7422C105.434 10.2695 105.377 9.86914 105.264 9.54102C105.15 9.20898 104.973 8.95703 104.73 8.78516C104.488 8.60938 104.174 8.52148 103.787 8.52148C103.217 8.52148 102.801 8.71289 102.539 9.0957C102.277 9.47852 102.146 10.0273 102.146 10.7422ZM113.73 7.51367V12.9336H114.668V16.2852H113.396V14H108.92V16.2852H107.648V12.9336H108.176C108.504 12.457 108.777 11.9258 108.996 11.3398C109.219 10.7539 109.391 10.1367 109.512 9.48828C109.637 8.83594 109.715 8.17773 109.746 7.51367H113.73ZM112.365 8.56836H110.93C110.883 9.0957 110.803 9.62109 110.689 10.1445C110.576 10.6641 110.43 11.1621 110.25 11.6387C110.074 12.1113 109.863 12.543 109.617 12.9336H112.365V8.56836Z" fill="white"/>
</svg>
