<svg width="62" height="18" viewBox="0 0 62 18" fill="none" xmlns="http://www.w3.org/2000/svg">
<path fill-rule="evenodd" clip-rule="evenodd" d="M6.488 9.40395C5.598 8.88295 5 7.91695 5 6.81295V4.54395C5 2.88795 6.344 1.54395 8 1.54395C9.656 1.54395 11 2.88795 11 4.54395V6.81295C11 7.91695 10.402 8.88295 9.512 9.40395V10.1999C11.99 10.2059 14 12.2199 14 14.6999V14.9999C14 15.5519 13.552 15.9999 13 15.9999H3C2.448 15.9999 2 15.5519 2 14.9999V14.6999C2 12.2199 4.01 10.2059 6.488 10.1999V9.40395Z" fill="white"/>
<path d="M25.125 5.43359H27.6738C28.7793 5.43359 29.6133 5.59375 30.1758 5.91406C30.7383 6.23438 31.0195 6.78711 31.0195 7.57227C31.0195 7.90039 30.9609 8.19727 30.8438 8.46289C30.7305 8.72461 30.5645 8.94141 30.3457 9.11328C30.127 9.28125 29.8574 9.39453 29.5371 9.45312V9.51172C29.8691 9.57031 30.1641 9.67383 30.4219 9.82227C30.6836 9.9707 30.8887 10.1836 31.0371 10.4609C31.1895 10.7383 31.2656 11.0977 31.2656 11.5391C31.2656 12.0625 31.1406 12.5078 30.8906 12.875C30.6445 13.2422 30.291 13.5215 29.8301 13.7129C29.373 13.9043 28.8301 14 28.2012 14H25.125V5.43359ZM26.5312 8.9668H27.8789C28.5156 8.9668 28.957 8.86328 29.2031 8.65625C29.4492 8.44922 29.5723 8.14648 29.5723 7.74805C29.5723 7.3418 29.4258 7.04883 29.1328 6.86914C28.8438 6.68945 28.3828 6.59961 27.75 6.59961H26.5312V8.9668ZM26.5312 10.1035V12.8223H28.0137C28.6699 12.8223 29.1309 12.6953 29.3965 12.4414C29.6621 12.1875 29.7949 11.8438 29.7949 11.4102C29.7949 11.1445 29.7344 10.9141 29.6133 10.7188C29.4961 10.5234 29.3027 10.373 29.0332 10.2676C28.7637 10.1582 28.4004 10.1035 27.9434 10.1035H26.5312ZM38.6367 10.7422C38.6367 11.2812 38.5664 11.7598 38.4258 12.1777C38.2852 12.5957 38.0801 12.9492 37.8105 13.2383C37.541 13.5234 37.2168 13.7422 36.8379 13.8945C36.459 14.043 36.0312 14.1172 35.5547 14.1172C35.1094 14.1172 34.7012 14.043 34.3301 13.8945C33.959 13.7422 33.6367 13.5234 33.3633 13.2383C33.0938 12.9492 32.8848 12.5957 32.7363 12.1777C32.5879 11.7598 32.5137 11.2812 32.5137 10.7422C32.5137 10.0273 32.6367 9.42188 32.8828 8.92578C33.1328 8.42578 33.4883 8.04492 33.9492 7.7832C34.4102 7.52148 34.959 7.39062 35.5957 7.39062C36.1934 7.39062 36.7207 7.52148 37.1777 7.7832C37.6348 8.04492 37.9922 8.42578 38.25 8.92578C38.5078 9.42578 38.6367 10.0312 38.6367 10.7422ZM33.9316 10.7422C33.9316 11.2148 33.9883 11.6191 34.1016 11.9551C34.2188 12.291 34.3984 12.5488 34.6406 12.7285C34.8828 12.9043 35.1953 12.9922 35.5781 12.9922C35.9609 12.9922 36.2734 12.9043 36.5156 12.7285C36.7578 12.5488 36.9355 12.291 37.0488 11.9551C37.1621 11.6191 37.2188 11.2148 37.2188 10.7422C37.2188 10.2695 37.1621 9.86914 37.0488 9.54102C36.9355 9.20898 36.7578 8.95703 36.5156 8.78516C36.2734 8.60938 35.959 8.52148 35.5723 8.52148C35.002 8.52148 34.5859 8.71289 34.3242 9.0957C34.0625 9.47852 33.9316 10.0273 33.9316 10.7422ZM41.543 7.51367V10.8242C41.543 10.9297 41.5391 11.0645 41.5312 11.2285C41.5273 11.3887 41.5195 11.5566 41.5078 11.7324C41.4961 11.9043 41.4844 12.0625 41.4727 12.207C41.4609 12.3516 41.4512 12.459 41.4434 12.5293L44.707 7.51367H46.3828V14H45.0645V10.7246C45.0645 10.5527 45.0684 10.3535 45.0762 10.127C45.0879 9.90039 45.0996 9.68164 45.1113 9.4707C45.127 9.25977 45.1367 9.09961 45.1406 8.99023L41.8887 14H40.2188V7.51367H41.543ZM45.8965 4.7832C45.8574 5.18555 45.748 5.5332 45.5684 5.82617C45.3926 6.11523 45.125 6.33789 44.7656 6.49414C44.4062 6.65039 43.9336 6.72852 43.3477 6.72852C42.7422 6.72852 42.2637 6.6543 41.9121 6.50586C41.5605 6.35352 41.3066 6.13281 41.1504 5.84375C40.9941 5.55078 40.9004 5.19727 40.8691 4.7832H42.123C42.1621 5.2168 42.2754 5.50977 42.4629 5.66211C42.6504 5.81055 42.9531 5.88477 43.3711 5.88477C43.7305 5.88477 44.0176 5.80469 44.2324 5.64453C44.4512 5.48438 44.582 5.19727 44.625 4.7832H45.8965ZM53.2617 8.59766H51.1289V14H49.7578V8.59766H47.6367V7.51367H53.2617V8.59766ZM55.8398 7.51367V10.8242C55.8398 10.9297 55.8359 11.0645 55.8281 11.2285C55.8242 11.3887 55.8164 11.5566 55.8047 11.7324C55.793 11.9043 55.7812 12.0625 55.7695 12.207C55.7578 12.3516 55.748 12.459 55.7402 12.5293L59.0039 7.51367H60.6797V14H59.3613V10.7246C59.3613 10.5527 59.3652 10.3535 59.373 10.127C59.3848 9.90039 59.3965 9.68164 59.4082 9.4707C59.4238 9.25977 59.4336 9.09961 59.4375 8.99023L56.1855 14H54.5156V7.51367H55.8398Z" fill="white"/>
</svg>
